<svg width="31" height="20" viewBox="0 0 31 20" fill="none" xmlns="http://www.w3.org/2000/svg">
<path fill-rule="evenodd" clip-rule="evenodd" d="M0 10C0 9.70536 0.116638 9.42278 0.324254 9.21444C0.53187 9.00609 0.813458 8.88904 1.10707 8.88904H27.2185L20.2506 1.89892C20.0427 1.69031 19.9259 1.40737 19.9259 1.11236C19.9259 0.817343 20.0427 0.53441 20.2506 0.325802C20.4584 0.117194 20.7404 6.95081e-09 21.0344 0C21.3284 -6.95081e-09 21.6103 0.117194 21.8182 0.325802L30.6748 9.21344C30.7779 9.31664 30.8597 9.43924 30.9155 9.57421C30.9713 9.70918 31 9.85387 31 10C31 10.1461 30.9713 10.2908 30.9155 10.4258C30.8597 10.5608 30.7779 10.6834 30.6748 10.7866L21.8182 19.6742C21.6103 19.8828 21.3284 20 21.0344 20C20.7404 20 20.4584 19.8828 20.2506 19.6742C20.0427 19.4656 19.9259 19.1827 19.9259 18.8876C19.9259 18.5926 20.0427 18.3097 20.2506 18.1011L27.2185 11.111H1.10707C0.813458 11.111 0.53187 10.9939 0.324254 10.7856C0.116638 10.5772 0 10.2946 0 10Z" fill="#FFFDF5"/>
</svg>
