<svg width="23" height="24" viewBox="0 0 23 24" fill="none" xmlns="http://www.w3.org/2000/svg">
<g clip-path="url(#clip0_16_142)">
<path d="M3.83355 6V20.6667C3.82761 20.9232 3.87017 21.1784 3.95879 21.4178C4.04741 21.6572 4.18036 21.876 4.35005 22.0617C4.51974 22.2474 4.72283 22.3965 4.94773 22.5003C5.17263 22.6041 5.41493 22.6606 5.66078 22.6667H17.3077C17.5563 22.665 17.802 22.6116 18.0306 22.5098C18.2592 22.4079 18.4661 22.2596 18.6391 22.0734C18.8122 21.8872 18.948 21.667 19.0386 21.4254C19.1292 21.1839 19.1728 20.926 19.1669 20.6667V6H3.83355ZM9.58356 19.3333H8.30578V9.33333H9.58356V19.3333ZM14.6947 19.3333H13.4169V9.33333H14.6947V19.3333Z" fill="black"/>
<path d="M19.6332 3.33325H14.6946V2.66659C14.6946 2.31296 14.5599 1.97382 14.3203 1.72378C14.0807 1.47373 13.7557 1.33325 13.4168 1.33325H9.45566C9.13938 1.36642 8.84631 1.5214 8.63366 1.76795C8.42102 2.0145 8.30407 2.3349 8.30566 2.66659V3.33325H3.19455C3.02511 3.33325 2.86261 3.40349 2.74279 3.52851C2.62298 3.65354 2.55566 3.82311 2.55566 3.99992C2.55566 4.17673 2.62298 4.3463 2.74279 4.47132C2.86261 4.59635 3.02511 4.66658 3.19455 4.66658H19.6332C19.8026 4.66658 19.9651 4.59635 20.0849 4.47132C20.2047 4.3463 20.2721 4.17673 20.2721 3.99992C20.2721 3.82311 20.2047 3.65354 20.0849 3.52851C19.9651 3.40349 19.8026 3.33325 19.6332 3.33325Z" fill="black"/>
</g>
<defs>
<clipPath id="clip0_16_142">
<rect width="23" height="24" fill="white"/>
</clipPath>
</defs>
</svg>
