<svg width="16" height="17" viewBox="0 0 16 17" fill="none" xmlns="http://www.w3.org/2000/svg">
<path d="M7.46373 2.52344H8.39284C8.47543 2.52344 8.51672 2.56771 8.51672 2.65625V14.3438C8.51672 14.4323 8.47543 14.4766 8.39284 14.4766H7.46373C7.38114 14.4766 7.33984 14.4323 7.33984 14.3438V2.65625C7.33984 2.56771 7.38114 2.52344 7.46373 2.52344Z" fill="black"/>
<path d="M2.97341 7.86914H13.3795C13.4621 7.86914 13.5034 7.91341 13.5034 8.00195V8.99805C13.5034 9.08659 13.4621 9.13086 13.3795 9.13086H2.47789C2.3953 9.13086 2.354 9.08659 2.354 8.99805V8.00195C2.354 7.91341 2.3953 7.86914 2.47789 7.86914H2.97341Z" fill="black"/>
</svg>
