<svg width="31" height="31" viewBox="0 0 31 31" fill="none" xmlns="http://www.w3.org/2000/svg">
<path d="M19.8343 19.8343L30 30M12.0568 1.00001C18.1484 1.00001 23.0651 5.94098 23.0651 12.0568C23.067 13.503 22.7836 14.9354 22.2311 16.2718C21.6786 17.6083 20.8678 18.8226 19.8452 19.8452C18.8226 20.8678 17.6083 21.6786 16.2718 22.2311C14.9354 22.7836 13.503 23.067 12.0568 23.0651C5.94098 23.0651 1.00001 18.1492 1.00001 12.0568C0.998255 10.6043 1.28305 9.16577 1.83809 7.8235C2.39312 6.48123 3.2075 5.26164 4.23457 4.23457C5.26164 3.2075 6.48123 2.39312 7.8235 1.83809C9.16577 1.28305 10.6043 0.998255 12.0568 1.00001Z" stroke="#5482EA" stroke-width="2" stroke-linecap="round" stroke-linejoin="round"/>
</svg>
